<?xml version="1.0" standalone="no"?>
<!DOCTYPE svg PUBLIC "-//W3C//DTD SVG 20010904//EN"
 "http://www.w3.org/TR/2001/REC-SVG-20010904/DTD/svg10.dtd">
<svg version="1.0" xmlns="http://www.w3.org/2000/svg"
 width="634.000000pt" height="634.000000pt" viewBox="0 0 634.000000 634.000000"
 preserveAspectRatio="xMidYMid meet">
<g transform="translate(0.000000,634.000000) scale(0.100000,-0.100000)"
fill="#000000" stroke="none">
<path d="M2970 5920 l0 -160 -480 0 -480 0 0 -160 0 -160 -320 0 -320 0 0
-160 0 -160 -160 0 -160 0 0 -160 0 -160 -160 0 -160 0 0 -160 0 -160 -160 0
-160 0 0 -160 0 -160 160 0 160 0 0 -160 0 -160 -160 0 -160 0 0 -160 0 -160
160 0 160 0 0 -160 0 -160 -160 0 -160 0 0 -160 0 -160 160 0 160 0 0 -320 0
-320 -160 0 -160 0 0 -160 0 -160 320 0 320 0 0 320 0 320 320 0 320 0 0 -160
0 -160 320 0 320 0 0 -160 0 -160 480 0 480 0 0 160 0 160 160 0 160 0 0 160
0 160 160 0 160 0 0 -160 0 -160 160 0 160 0 0 -160 0 -160 480 0 480 0 0 160
0 160 160 0 160 0 0 480 0 480 160 0 160 0 0 160 0 160 -160 0 -160 0 0 160 0
160 160 0 160 0 0 160 0 160 -160 0 -160 0 0 160 0 160 160 0 160 0 0 160 0
160 -160 0 -160 0 0 160 0 160 -160 0 -160 0 0 160 0 160 -160 0 -160 0 0 160
0 160 -320 0 -320 0 0 160 0 160 -160 0 -160 0 0 -160 0 -160 -320 0 -320 0 0
160 0 160 -160 0 -160 0 0 -160z m960 -1600 l0 -160 160 0 160 0 0 -160 0
-160 160 0 160 0 0 -320 0 -320 -320 0 -320 0 0 -160 0 -160 -160 0 -160 0 0
160 0 160 -800 0 -800 0 0 480 0 480 160 0 160 0 0 160 0 160 800 0 800 0 0
-160z m1280 -800 l0 -320 -160 0 -160 0 0 320 0 320 160 0 160 0 0 -320z
m-2560 -960 l0 -320 -160 0 -160 0 0 320 0 320 160 0 160 0 0 -320z m640 0 l0
-320 -160 0 -160 0 0 320 0 320 160 0 160 0 0 -320z m1280 0 l0 -320 -160 0
-160 0 0 320 0 320 160 0 160 0 0 -320z m640 0 l0 -320 -160 0 -160 0 0 320 0
320 160 0 160 0 0 -320z"/>
<path d="M1050 1440 l0 -160 320 0 320 0 0 -160 0 -160 -160 0 -160 0 0 -160
0 -160 480 0 480 0 0 160 0 160 -160 0 -160 0 0 160 0 160 -160 0 -160 0 0
160 0 160 -320 0 -320 0 0 -160z"/>
</g>
</svg>
